FFmpeg version SVN-r25716, Copyright (c) 2000-2010 the FFmpeg developers  built on Nov 10 2010 12:23:18 with gcc 4.1.2 20080704 (Red Hat 4.1.2-48)  configuration: --enable-libmp3lame --enable-shared --disable-mmx --arch=x86_64  libavutil     50.33. 0 / 50.33. 0  libavcore      0.12. 1 /  0.12. 1  libavcodec    52.94. 4 / 52.94. 4  libavformat   52.84. 0 / 52.84. 0  libavdevice   52. 2. 2 / 52. 2. 2  libavfilter    1.59. 0 /  1.59. 0  libswscale     0.12. 0 /  0.12. 0Seems stream 0 codec frame rate differs from container frame rate: 5994.00 (5994/1) -> 29.97 (2997/100)Input #0, mov,mp4,m4a,3gp,3g2,mj2, from '/RAID10/data/converted_video_files/12430.mov':  Metadata:    major_brand     : qt      minor_version   : 537199360    compatible_brands: qt    Duration: 00:00:27.72, start: 0.000000, bitrate: 761 kb/s    Stream #0.0(eng): Video: h264, yuv420p, 960x540, 758 kb/s, 29.97 fps, 29.97 tbr, 2997 tbn, 5994 tbc[buffer @ 0x183bde60] w:960 h:540 pixfmt:yuv420pOutput #0, flv, to '/RAID10/data/converted_video_files/12430.flv':  Metadata:    encoder         : Lavf52.84.0    Stream #0.0(eng): Video: flv, yuv420p, 960x540, q=2-31, 600 kb/s, 1k tbn, 24 tbcStream mapping:  Stream #0.0 -> #0.0Press [q] to stop encodingframe=   44 fps=  0 q=2.0 size=     250kB time=1.83 bitrate=1115.1kbits/s dup=0 drop=10    frame=   82 fps= 78 q=7.9 size=     543kB time=3.42 bitrate=1301.8kbits/s dup=0 drop=20    frame=  115 fps= 75 q=3.0 size=     715kB time=4.79 bitrate=1221.6kbits/s dup=0 drop=28    frame=  159 fps= 78 q=19.6 size=     909kB time=6.62 bitrate=1124.2kbits/s dup=0 drop=39    frame=  194 fps= 76 q=7.9 size=    1001kB time=8.08 bitrate=1015.0kbits/s dup=0 drop=48    frame=  231 fps= 76 q=7.2 size=    1129kB time=9.62 bitrate= 960.9kbits/s dup=0 drop=57    frame=  266 fps= 75 q=10.6 size=    1221kB time=11.08 bitrate= 902.6kbits/s dup=0 drop=66    frame=  312 fps= 77 q=13.6 size=    1357kB time=13.00 bitrate= 854.9kbits/s dup=0 drop=77    frame=  347 fps= 76 q=13.5 size=    1446kB time=14.46 bitrate= 819.1kbits/s dup=0 drop=86    frame=  383 fps= 75 q=20.8 size=    1543kB time=15.96 bitrate= 792.2kbits/s dup=0 drop=95    frame=  423 fps= 76 q=8.4 size=    1668kB time=17.62 bitrate= 775.4kbits/s dup=0 drop=105    frame=  465 fps= 76 q=20.2 size=    1805kB time=19.38 bitrate= 763.1kbits/s dup=0 drop=115    frame=  495 fps= 75 q=6.8 size=    1898kB time=20.62 bitrate= 753.9kbits/s dup=0 drop=123    frame=  521 fps= 73 q=7.4 size=    1970kB time=21.71 bitrate= 743.5kbits/s dup=0 drop=129    frame=  542 fps= 71 q=22.1 size=    2055kB time=22.58 bitrate= 745.5kbits/s dup=0 drop=134    frame=  566 fps= 70 q=10.6 size=    2125kB time=23.58 bitrate= 738.1kbits/s dup=0 drop=140    frame=  612 fps= 71 q=12.3 size=    2269kB time=25.50 bitrate= 729.1kbits/s dup=0 drop=152    frame=  645 fps= 71 q=13.2 size=    2355kB time=26.88 bitrate= 717.9kbits/s dup=0 drop=160    frame=  666 fps= 70 q=7.0 Lsize=    2414kB time=27.75 bitrate= 712.6kbits/s dup=0 drop=165    video:2403kB audio:0kB global headers:0kB muxing overhead 0.441537%